<?xml version="1.0" encoding="UTF-8"?>
<svg version="1.1" xmlns="http://www.w3.org/2000/svg" width="1200" height="1200">
<path d="M0 0 C396 0 792 0 1200 0 C1200 396 1200 792 1200 1200 C804 1200 408 1200 0 1200 C0 804 0 408 0 0 Z " fill="#10316B" transform="translate(0,0)"/>
<path d="M0 0 C267.3 0 534.6 0 810 0 C810 158.4 810 316.8 810 480 C542.7 480 275.4 480 0 480 C0 321.6 0 163.2 0 0 Z " fill="#11316A" transform="translate(195,360)"/>
<path d="M0 0 C267.3 0 534.6 0 810 0 C810 158.4 810 316.8 810 480 C542.7 480 275.4 480 0 480 C0 321.6 0 163.2 0 0 Z M45 45 C45 97.14 45 149.28 45 203 C119.25 203 193.5 203 270 203 C270 207.62 270 212.24 270 217 C195.75 217 121.5 217 45 217 C45 288.94 45 360.88 45 435 C282.6 435 520.2 435 765 435 C765 363.06 765 291.12 765 217 C690.75 217 616.5 217 540 217 C540 212.38 540 207.76 540 203 C614.25 203 688.5 203 765 203 C765 150.86 765 98.72 765 45 C527.4 45 289.8 45 45 45 Z " fill="#FDBE34" transform="translate(195,360)"/>
<path d="M0 0 C247.5 0 495 0 750 0 C750 138.6 750 277.2 750 420 C502.5 420 255 420 0 420 C0 281.4 0 142.8 0 0 Z M15 15 C15 67.14 15 119.28 15 173 C89.25 173 163.5 173 240 173 C240 177.62 240 182.24 240 187 C165.75 187 91.5 187 15 187 C15 258.94 15 330.88 15 405 C252.6 405 490.2 405 735 405 C735 333.06 735 261.12 735 187 C660.75 187 586.5 187 510 187 C510 182.38 510 177.76 510 173 C584.25 173 658.5 173 735 173 C735 120.86 735 68.72 735 15 C497.4 15 259.8 15 15 15 Z " fill="#FDBE34" transform="translate(225,390)"/>
<path d="M0 0 C257.4 0 514.8 0 780 0 C780 148.5 780 297 780 450 C522.6 450 265.2 450 0 450 C0 301.5 0 153 0 0 Z M15 15 C15 153.6 15 292.2 15 435 C262.5 435 510 435 765 435 C765 296.4 765 157.8 765 15 C517.5 15 270 15 15 15 Z " fill="#10316B" transform="translate(210,375)"/>
<path d="M0 0 C1.76242538 -0.01279495 1.76242538 -0.01279495 3.56045532 -0.02584839 C4.85608398 -0.02494202 6.15171265 -0.02403564 7.48660278 -0.02310181 C8.85970425 -0.02908369 10.23280235 -0.03588845 11.605896 -0.04345703 C15.34148209 -0.06116001 19.07697663 -0.06581424 22.81260061 -0.0670886 C25.92893545 -0.06898536 29.04524884 -0.0763404 32.16157544 -0.08343279 C39.51341847 -0.09973105 46.86521251 -0.10460048 54.21707153 -0.10317993 C61.80499382 -0.10197844 69.39263168 -0.1230783 76.98048198 -0.15466726 C83.49094797 -0.18080674 90.00132095 -0.1915482 96.51183903 -0.19026911 C100.40207666 -0.18975874 104.29206171 -0.19548275 108.18224716 -0.21662521 C111.84146385 -0.23596846 115.50018604 -0.23615946 119.15942001 -0.22159195 C121.14344419 -0.21849865 123.1274682 -0.23520807 125.11141968 -0.25247192 C126.29200958 -0.24408295 127.47259949 -0.23569397 128.68896484 -0.22705078 C129.71508818 -0.22814032 130.74121151 -0.22922985 131.79842949 -0.2303524 C135.19673132 0.40248581 136.35575308 1.58518846 138.47146606 4.26742554 C139.46857328 7.2587472 139.59487795 9.21307508 139.59172058 12.33570862 C139.59378683 13.90366196 139.59378683 13.90366196 139.59589481 15.50329113 C139.59229671 16.65417375 139.5886986 17.80505636 139.58499146 18.99081421 C139.58511199 20.22028684 139.58523252 21.44975946 139.58535671 22.71648884 C139.584733 26.04375679 139.57978456 29.37096255 139.57274628 32.6982193 C139.56705353 35.81979779 139.56678327 38.9413747 139.56607056 42.06295776 C139.56082215 51.19361845 139.54686102 60.32427245 139.53396606 69.45492554 C139.51334106 89.85305054 139.49271606 110.25117554 139.47146606 131.26742554 C89.97146606 131.26742554 40.47146606 131.26742554 -10.52853394 131.26742554 C-10.59040894 110.91055054 -10.65228394 90.55367554 -10.71603394 69.57992554 C-10.74334595 63.15177368 -10.77065796 56.72362183 -10.79879761 50.10067749 C-10.81234741 42.25216675 -10.81234741 42.25216675 -10.81486511 38.57814026 C-10.81947267 36.01151709 -10.82890412 33.4453362 -10.84526062 30.87879944 C-10.8697039 26.99178698 -10.87025313 23.10495772 -10.86911011 19.21786499 C-10.87990443 18.07417859 -10.89069876 16.93049219 -10.90182018 15.75214863 C-10.89768769 14.70409141 -10.8935552 13.65603418 -10.88929749 12.57621765 C-10.89206286 11.66640798 -10.89482824 10.7565983 -10.89767742 9.81921864 C-9.92618691 3.10355693 -6.49870242 0.02124271 0 0 Z " fill="#13336A" transform="translate(535.5285339355469,451.7325744628906)"/>
<path d="M0 0 C1.76242538 -0.01279495 1.76242538 -0.01279495 3.56045532 -0.02584839 C4.85608398 -0.02494202 6.15171265 -0.02403564 7.48660278 -0.02310181 C8.85970425 -0.02908369 10.23280235 -0.03588845 11.605896 -0.04345703 C15.34148209 -0.06116001 19.07697663 -0.06581424 22.81260061 -0.0670886 C25.92893545 -0.06898536 29.04524884 -0.0763404 32.16157544 -0.08343279 C39.51341847 -0.09973105 46.86521251 -0.10460048 54.21707153 -0.10317993 C61.80499382 -0.10197844 69.39263168 -0.1230783 76.98048198 -0.15466726 C83.49094797 -0.18080674 90.00132095 -0.1915482 96.51183903 -0.19026911 C100.40207666 -0.18975874 104.29206171 -0.19548275 108.18224716 -0.21662521 C111.84146385 -0.23596846 115.50018604 -0.23615946 119.15942001 -0.22159195 C121.14344419 -0.21849865 123.1274682 -0.23520807 125.11141968 -0.25247192 C126.29200958 -0.24408295 127.47259949 -0.23569397 128.68896484 -0.22705078 C129.71508818 -0.22814032 130.74121151 -0.22922985 131.79842949 -0.2303524 C135.19673132 0.40248581 136.35575308 1.58518846 138.47146606 4.26742554 C139.46857328 7.2587472 139.59487795 9.21307508 139.59172058 12.33570862 C139.59378683 13.90366196 139.59378683 13.90366196 139.59589481 15.50329113 C139.59229671 16.65417375 139.5886986 17.80505636 139.58499146 18.99081421 C139.58511199 20.22028684 139.58523252 21.44975946 139.58535671 22.71648884 C139.584733 26.04375679 139.57978456 29.37096255 139.57274628 32.6982193 C139.56705353 35.81979779 139.56678327 38.9413747 139.56607056 42.06295776 C139.56082215 51.19361845 139.54686102 60.32427245 139.53396606 69.45492554 C139.51334106 89.85305054 139.49271606 110.25117554 139.47146606 131.26742554 C89.97146606 131.26742554 40.47146606 131.26742554 -10.52853394 131.26742554 C-10.59040894 110.91055054 -10.65228394 90.55367554 -10.71603394 69.57992554 C-10.74334595 63.15177368 -10.77065796 56.72362183 -10.79879761 50.10067749 C-10.81234741 42.25216675 -10.81234741 42.25216675 -10.81486511 38.57814026 C-10.81947267 36.01151709 -10.82890412 33.4453362 -10.84526062 30.87879944 C-10.8697039 26.99178698 -10.87025313 23.10495772 -10.86911011 19.21786499 C-10.87990443 18.07417859 -10.89069876 16.93049219 -10.90182018 15.75214863 C-10.89768769 14.70409141 -10.8935552 13.65603418 -10.88929749 12.57621765 C-10.89206286 11.66640798 -10.89482824 10.7565983 -10.89767742 9.81921864 C-9.92618691 3.10355693 -6.49870242 0.02124271 0 0 Z M-4.52853394 23.26742554 C-4.52853394 57.25742554 -4.52853394 91.24742554 -4.52853394 126.26742554 C41.01146606 126.26742554 86.55146606 126.26742554 133.47146606 126.26742554 C133.47146606 92.27742554 133.47146606 58.28742554 133.47146606 23.26742554 C87.93146606 23.26742554 42.39146606 23.26742554 -4.52853394 23.26742554 Z " fill="#FDBE34" transform="translate(535.5285339355469,451.7325744628906)"/>
<path d="M0 0 C1.12735565 -0.00281982 2.2547113 -0.00563965 3.41622925 -0.00854492 C5.28022873 -0.00550858 5.28022873 -0.00550858 7.18188477 -0.00241089 C8.48594269 -0.00416321 9.79000061 -0.00591553 11.13357544 -0.00772095 C14.71613107 -0.01228954 18.29865799 -0.01050807 21.88121414 -0.00734186 C25.62523732 -0.00481531 29.36925798 -0.00715663 33.11328125 -0.00872803 C39.40145307 -0.01054886 45.68961316 -0.00814568 51.9777832 -0.00338745 C59.25435164 0.002055 66.53089207 0.00029229 73.80745983 -0.00521386 C80.0478219 -0.00974745 86.28817552 -0.01039433 92.5285387 -0.00777519 C96.2587664 -0.00621377 99.98898091 -0.00601496 103.71920776 -0.00931168 C107.87605456 -0.01272862 112.03285283 -0.00799662 116.18969727 -0.00241089 C117.43236359 -0.00443512 118.67502991 -0.00645935 119.95535278 -0.00854492 C121.08270844 -0.0057251 122.21006409 -0.00290527 123.37158203 0 C124.84716331 0.00056554 124.84716331 0.00056554 126.35255432 0.0011425 C128.68579102 0.12698364 128.68579102 0.12698364 130.68579102 1.12698364 C130.68579102 5.08698364 130.68579102 9.04698364 130.68579102 13.12698364 C85.14579102 13.12698364 39.60579102 13.12698364 -7.31420898 13.12698364 C-7.31420898 9.16698364 -7.31420898 5.20698364 -7.31420898 1.12698364 C-4.73424648 -0.16299761 -2.8898813 0.00110759 0 0 Z " fill="#213B66" transform="translate(538.314208984375,456.8730163574219)"/>
<path d="M0 0 C20.78571429 0 20.78571429 0 26.8125 5.625 C31.47682724 12.06019046 32.5882658 18.62180055 31.57421875 26.41796875 C30.23774898 32.4275369 27.22159034 36.64326335 22 40 C16 42 16 42 0 42 C0 28.14 0 14.28 0 0 Z " fill="#FDBE34" transform="translate(650,667)"/>
<path d="M0 0 C2.64 0 5.28 0 8 0 C8 14.52 8 29.04 8 44 C5.69 44 3.38 44 1 44 C0.34 43.34 -0.32 42.68 -1 42 C-1.680625 42.515625 -2.36125 43.03125 -3.0625 43.5625 C-6.94111222 45.46054428 -8.87679425 45.17805879 -13 44 C-17.07345637 40.83175616 -18.93525303 38.03334933 -20 33 C-20.63959906 26.85528047 -19.98664969 21.47123327 -17 16 C-14.64480452 13.39246215 -13.05698728 13.01477448 -9.625 12.125 C-6 12 -6 12 0 15 C0 10.05 0 5.1 0 0 Z " fill="#FDBE34" transform="translate(466,665)"/>
<path d="M0 0 C2.64 0 5.28 0 8 0 C8 4.95 8 9.9 8 15 C9.98 14.01 11.96 13.02 14 12 C17.89693109 11.61862774 21.15019025 12.39618781 24.375 14.6875 C28.52969245 20.59994695 28.6708971 26.99624086 28 34 C26.98871556 37.830413 25.45132418 41.85779879 22 44 C15.14394662 45.54814109 15.14394662 45.54814109 11 43.5625 C10.34 43.046875 9.68 42.53125 9 42 C8.34 42.66 7.68 43.32 7 44 C4.69 44 2.38 44 0 44 C0 29.48 0 14.96 0 0 Z " fill="#FDBE34" transform="translate(616,665)"/>
<path d="M0 0 C3.33518732 2.60587117 4.87807323 5.03615674 6.15234375 8.9921875 C6.84458863 15.16845026 6.84478182 20.77184403 3.15234375 25.9921875 C-0.34692699 29.80021742 -3.56215013 30.75261555 -8.5703125 31.0859375 C-12.26516738 30.9338337 -14.70757027 29.90086722 -17.84765625 27.9921875 C-22.03345293 22.81501792 -23.21938004 18.76857724 -23.1328125 12.15234375 C-22.50441366 7.39200734 -20.26827314 3.36841011 -16.84765625 0.0546875 C-11.64644332 -2.70845687 -5.2263473 -2.85073489 0 0 Z " fill="#FDBE34" transform="translate(540.84765625,679.0078125)"/>
<path d="M0 0 C3.33518732 2.60587117 4.87807323 5.03615674 6.15234375 8.9921875 C6.84458863 15.16845026 6.84478182 20.77184403 3.15234375 25.9921875 C-0.34692699 29.80021742 -3.56215013 30.75261555 -8.5703125 31.0859375 C-12.26516738 30.9338337 -14.70757027 29.90086722 -17.84765625 27.9921875 C-22.03345293 22.81501792 -23.21938004 18.76857724 -23.1328125 12.15234375 C-22.50441366 7.39200734 -20.26827314 3.36841011 -16.84765625 0.0546875 C-11.64644332 -2.70845687 -5.2263473 -2.85073489 0 0 Z " fill="#FDBE34" transform="translate(402.84765625,679.0078125)"/>
<path d="M0 0 C3.48037702 3.0559408 5.43645706 5.35935591 5.75 10.0625 C5.6571875 11.1453125 5.6571875 11.1453125 5.5625 12.25 C2.9225 12.25 0.2825 12.25 -2.4375 12.25 C-2.72625 11.280625 -3.015 10.31125 -3.3125 9.3125 C-4.07964682 6.14335797 -4.07964682 6.14335797 -6.4375 5.25 C-11.4933397 4.73998879 -11.4933397 4.73998879 -15.8125 7.0625 C-18.71677083 10.97209535 -18.59996404 14.38819546 -18.625 19.125 C-18.64626953 20.94644531 -18.64626953 20.94644531 -18.66796875 22.8046875 C-18.37041542 27.25285761 -17.60579894 30.08170106 -14.4375 33.25 C-9.16494106 33.84099748 -9.16494106 33.84099748 -4.5 31.9375 C-3.26178274 30.11929609 -3.26178274 30.11929609 -2.4375 27.25 C0.2025 27.25 2.8425 27.25 5.5625 27.25 C5.10911888 32.12384699 4.14192756 34.85413282 0.5625 38.25 C-5.21082118 41.70332607 -10.9998756 41.8351437 -17.4375 40.25 C-22.38768924 37.72990366 -25.22005462 34.88530894 -26.99609375 29.58203125 C-27.6346119 26.20862117 -27.66223095 22.85829701 -27.6875 19.4375 C-27.708125 18.75107422 -27.72875 18.06464844 -27.75 17.35742188 C-27.79427232 11.50794157 -26.67398006 6.85490252 -22.75390625 2.2890625 C-22.17511719 1.82242188 -21.59632813 1.35578125 -21 0.875 C-20.13568359 0.15183594 -20.13568359 0.15183594 -19.25390625 -0.5859375 C-13.44716639 -4.30724605 -5.83278794 -2.96941931 0 0 Z " fill="#FDBE34" transform="translate(507.4375,668.75)"/>
<path d="M0 0 C3.48037702 3.0559408 5.43645706 5.35935591 5.75 10.0625 C5.6571875 11.1453125 5.6571875 11.1453125 5.5625 12.25 C2.9225 12.25 0.2825 12.25 -2.4375 12.25 C-2.72625 11.280625 -3.015 10.31125 -3.3125 9.3125 C-4.07964682 6.14335797 -4.07964682 6.14335797 -6.4375 5.25 C-11.4933397 4.73998879 -11.4933397 4.73998879 -15.8125 7.0625 C-18.71677083 10.97209535 -18.59996404 14.38819546 -18.625 19.125 C-18.64626953 20.94644531 -18.64626953 20.94644531 -18.66796875 22.8046875 C-18.37041542 27.25285761 -17.60579894 30.08170106 -14.4375 33.25 C-9.16494106 33.84099748 -9.16494106 33.84099748 -4.5 31.9375 C-3.26178274 30.11929609 -3.26178274 30.11929609 -2.4375 27.25 C0.2025 27.25 2.8425 27.25 5.5625 27.25 C5.10911888 32.12384699 4.14192756 34.85413282 0.5625 38.25 C-5.21082118 41.70332607 -10.9998756 41.8351437 -17.4375 40.25 C-22.38768924 37.72990366 -25.22005462 34.88530894 -26.99609375 29.58203125 C-27.6346119 26.20862117 -27.66223095 22.85829701 -27.6875 19.4375 C-27.708125 18.75107422 -27.72875 18.06464844 -27.75 17.35742188 C-27.79427232 11.50794157 -26.67398006 6.85490252 -22.75390625 2.2890625 C-22.17511719 1.82242188 -21.59632813 1.35578125 -21 0.875 C-20.13568359 0.15183594 -20.13568359 0.15183594 -19.25390625 -0.5859375 C-13.44716639 -4.30724605 -5.83278794 -2.96941931 0 0 Z " fill="#FDBE34" transform="translate(353.4375,668.75)"/>
<path d="M0 0 C2.64 0 5.28 0 8 0 C8.33 4.95 8.66 9.9 9 15 C10.65 14.01 12.3 13.02 14 12 C16.84086952 11.66142337 19.30023795 12.06242573 22 13 C25.22809958 16.14532779 26.90187175 18.88064091 27.11352539 23.4519043 C27.10828857 24.39976807 27.10305176 25.34763184 27.09765625 26.32421875 C27.09443359 27.35224609 27.09121094 28.38027344 27.08789062 29.43945312 C27.07951172 30.51130859 27.07113281 31.58316406 27.0625 32.6875 C27.05798828 33.77095703 27.05347656 34.85441406 27.04882812 35.97070312 C27.03703743 38.64719085 27.02058063 41.32356777 27 44 C24.36 44 21.72 44 19 44 C18.97494385 43.34402832 18.9498877 42.68805664 18.92407227 42.01220703 C18.8082674 39.04959817 18.68547114 36.08731969 18.5625 33.125 C18.52318359 32.09246094 18.48386719 31.05992187 18.44335938 29.99609375 C18.40146484 29.00996094 18.35957031 28.02382813 18.31640625 27.0078125 C18.27974854 26.09660645 18.24309082 25.18540039 18.20532227 24.24658203 C18.13422935 21.96516519 18.13422935 21.96516519 17 20 C15.17323569 19.14681461 15.17323569 19.14681461 13 19 C11.02 19.99 11.02 19.99 9 21 C8.67 28.59 8.34 36.18 8 44 C5.36 44 2.72 44 0 44 C0 29.48 0 14.96 0 0 Z " fill="#FDBE34" transform="translate(846,665)"/>
<path d="M0 0 C3.14766164 3.24602606 3.15986374 5.29864573 3.31640625 9.7265625 C3.35830078 10.84804688 3.40019531 11.96953125 3.44335938 13.125 C3.48267578 14.300625 3.52199219 15.47625 3.5625 16.6875 C3.60568359 17.87085938 3.64886719 19.05421875 3.69335938 20.2734375 C3.79967426 23.20300328 3.90170642 26.13265588 4 29.0625 C1.36 29.0625 -1.28 29.0625 -4 29.0625 C-4 28.4025 -4 27.7425 -4 27.0625 C-4.825 27.578125 -5.65 28.09375 -6.5 28.625 C-10.75589609 30.37295732 -13.66432049 30.64395687 -18 29.0625 C-21.0625 26.5 -21.0625 26.5 -23 23.0625 C-23.31902305 19.46500607 -22.76241755 16.33319592 -20.875 13.1875 C-15.86172169 10.17953301 -10.72150428 9.82896921 -5 10.0625 C-5.66 8.0825 -6.32 6.1025 -7 4.0625 C-9.41619823 3.81219023 -9.41619823 3.81219023 -12 4.0625 C-12.99 5.5475 -12.99 5.5475 -14 7.0625 C-15.9453125 7.35546875 -15.9453125 7.35546875 -18.125 7.25 C-20.043125 7.1571875 -20.043125 7.1571875 -22 7.0625 C-21.70902736 3.57082834 -21.24460417 2.30049325 -18.6875 -0.1875 C-12.79636571 -4.02358744 -5.87759841 -3.79594897 0 0 Z " fill="#FDBE34" transform="translate(606,679.9375)"/>
<path d="M0 0 C4.64027095 5.06211376 4.0625 8.04854616 4.0625 15.25 C-5.3425 15.745 -5.3425 15.745 -14.9375 16.25 C-13.53070986 21.28884814 -13.53070986 21.28884814 -10.25 22.75 C-5.80685357 23.42066361 -3.87826436 22.29919747 0.0625 20.25 C1.0525 21.24 2.0425 22.23 3.0625 23.25 C2.04851968 26.51726992 0.99993422 27.28702873 -2 29.0625 C-7.40014829 31.12560467 -12.61434721 30.26006643 -17.8125 28 C-21.83322665 24.68881334 -23.08235474 21.50191178 -23.8125 16.4375 C-24.26194333 10.28287808 -22.87798696 5.70795015 -19.0625 0.875 C-13.07265297 -3.70547126 -6.4670453 -3.85270784 0 0 Z " fill="#FDBE34" transform="translate(805.9375,679.75)"/>
<path d="M0 0 C4.64027095 5.06211376 4.0625 8.04854616 4.0625 15.25 C-5.3425 15.745 -5.3425 15.745 -14.9375 16.25 C-13.53070986 21.28884814 -13.53070986 21.28884814 -10.25 22.75 C-5.80685357 23.42066361 -3.87826436 22.29919747 0.0625 20.25 C1.0525 21.24 2.0425 22.23 3.0625 23.25 C2.04851968 26.51726992 0.99993422 27.28702873 -2 29.0625 C-7.40014829 31.12560467 -12.61434721 30.26006643 -17.8125 28 C-21.83322665 24.68881334 -23.08235474 21.50191178 -23.8125 16.4375 C-24.26194333 10.28287808 -22.87798696 5.70795015 -19.0625 0.875 C-13.07265297 -3.70547126 -6.4670453 -3.85270784 0 0 Z " fill="#FDBE34" transform="translate(709.9375,679.75)"/>
<path d="M0 0 C2.64 0 5.28 0 8 0 C8.33 7.59 8.66 15.18 9 23 C10.32 23.66 11.64 24.32 13 25 C14.65 24.34 16.3 23.68 18 23 C18.33 15.41 18.66 7.82 19 0 C21.64 0 24.28 0 27 0 C27 10.23 27 20.46 27 31 C24.36 31 21.72 31 19 31 C18.67 30.34 18.34 29.68 18 29 C17.01 29.7734375 17.01 29.7734375 16 30.5625 C12.03343049 32.46314789 9.16503572 32.28959265 5 31 C1.79508636 28.61685909 0.71356334 26.8471855 0 23 C-0.07991104 21.19418245 -0.10769823 19.38568191 -0.09765625 17.578125 C-0.09443359 16.55332031 -0.09121094 15.52851562 -0.08789062 14.47265625 C-0.07951172 13.40917969 -0.07113281 12.34570312 -0.0625 11.25 C-0.05798828 10.17105469 -0.05347656 9.09210937 -0.04882812 7.98046875 C-0.03705727 5.32025617 -0.02061399 2.66015635 0 0 Z " fill="#FDBE34" transform="translate(414,678)"/>
<path d="M0 0 C11.22 0 22.44 0 34 0 C34 2.31 34 4.62 34 7 C29.71 7 25.42 7 21 7 C21 18.55 21 30.1 21 42 C18.36 42 15.72 42 13 42 C13 30.45 13 18.9 13 7 C8.71 7 4.42 7 0 7 C0 4.69 0 2.38 0 0 Z " fill="#FDBE34" transform="translate(747,667)"/>
<path d="M0 0 C2.71705898 1.40071985 3.89407009 2.63082885 6 5 C6.875 8.3125 6.875 8.3125 7 11 C3.8125 11.3125 3.8125 11.3125 0 11 C-2.9375 8.5 -2.9375 8.5 -5 6 C-8.72614153 7.11854586 -8.72614153 7.11854586 -11 10 C-11.12176503 11.80948495 -11.17545792 13.62396271 -11.1875 15.4375 C-11.20876953 16.88962891 -11.20876953 16.88962891 -11.23046875 18.37109375 C-11.19149451 21.23266727 -11.19149451 21.23266727 -9 24 C-6.08494366 25.16602254 -3.91111804 25.20460057 -1 24 C-0.67 23.01 -0.34 22.02 0 21 C2.31 21 4.62 21 7 21 C6.14289583 24.42841668 5.30614549 26.65674596 2.9375 29.3125 C-1.00612499 31.5779867 -4.46639474 32.21588596 -9 32 C-12.63134875 30.65505602 -15.67089724 29.14428873 -18 26 C-20.49171055 20.49200826 -21.18834185 14.52827272 -19.2421875 8.75 C-17.46772929 4.94958557 -15.77856279 2.07211508 -12 0 C-7.79656314 -1.40114562 -4.27923485 -1.0570512 0 0 Z " fill="#FDBE34" transform="translate(834,678)"/>
<path d="M0 0 C2.64 0 5.28 0 8 0 C8.83830973 2.76941606 9.67082034 5.54035069 10.5 8.3125 C10.73847656 9.09818359 10.97695313 9.88386719 11.22265625 10.69335938 C11.44824219 11.45068359 11.67382812 12.20800781 11.90625 12.98828125 C12.11572266 13.68477783 12.32519531 14.38127441 12.54101562 15.09887695 C13 17 13 17 13 20 C13.66 20 14.32 20 15 20 C15.103125 18.906875 15.20625 17.81375 15.3125 16.6875 C17.00575153 2.99424847 17.00575153 2.99424847 20 0 C22.67058851 -0.14115161 25.32432238 -0.04247107 28 0 C25.45115129 10.58379083 21.6653736 20.76492929 18 31 C15.36 31 12.72 31 10 31 C8.56975258 27.06948228 7.14576919 23.13676931 5.72753906 19.2019043 C5.24422865 17.86371832 4.75921402 16.52614657 4.27246094 15.18920898 C3.57297655 13.26705444 2.87965723 11.34277196 2.1875 9.41796875 C1.76855469 8.26063232 1.34960938 7.1032959 0.91796875 5.91088867 C0 3 0 3 0 0 Z " fill="#FDBE34" transform="translate(717,678)"/>
<path d="M0 0 C1.67542976 0.28604898 3.34385343 0.61781233 5 1 C4.30780245 5.47390713 2.72449361 9.47339297 1.0078125 13.6328125 C0.5549588 14.74579208 0.5549588 14.74579208 0.09295654 15.8812561 C-0.89160506 18.29781308 -1.88268126 20.71161886 -2.875 23.125 C-4.24568026 26.46578194 -5.61517326 29.80704937 -6.984375 33.1484375 C-7.32659088 33.98209839 -7.66880676 34.81575928 -8.02139282 35.67468262 C-10.16053712 40.89986099 -12.23619192 46.14542752 -14.265625 51.4140625 C-14.75739377 52.67584527 -15.24972489 53.93740905 -15.74267578 55.19873047 C-16.64719805 57.52249961 -17.53683228 59.85213267 -18.40966797 62.18798828 C-18.81330566 63.2139209 -19.21694336 64.23985352 -19.6328125 65.296875 C-19.97199707 66.18729492 -20.31118164 67.07771484 -20.66064453 67.99511719 C-22 70 -22 70 -24.64794922 70.79394531 C-25.42412598 70.86194336 -26.20030273 70.92994141 -27 71 C-28.0377141 67.85178081 -28.0048398 66.21803615 -26.71166992 63.17895508 C-26.40319626 62.438293 -26.0947226 61.69763092 -25.77690125 60.93452454 C-25.43157852 60.13757675 -25.0862558 59.34062897 -24.73046875 58.51953125 C-24.37833817 57.68169601 -24.02620758 56.84386078 -23.66340637 55.9806366 C-22.51493523 53.25350307 -21.35124348 50.53314676 -20.1875 47.8125 C-19.00680142 45.01924723 -17.82998199 42.224381 -16.65335083 39.42941284 C-15.87184749 37.57381771 -15.08903193 35.71877468 -14.30490112 33.86428833 C-10.66954481 25.25784561 -7.19635788 16.59413102 -3.78198242 7.89770508 C-3.42080322 6.9827124 -3.05962402 6.06771973 -2.6875 5.125 C-2.38199219 4.34382813 -2.07648437 3.56265625 -1.76171875 2.7578125 C-1 1 -1 1 0 0 Z " fill="#FDBE34" transform="translate(610,488)"/>
<path d="M0 0 C9 0 9 0 12 2.375 C16.28005508 7.99257229 15.58329492 14.14822906 15 21 C13.7782819 24.29458577 12.21492885 26.39253558 9 28 C6.03 28 3.06 28 0 28 C0 18.76 0 9.52 0 0 Z " fill="#1D3867" transform="translate(658,674)"/>
<path d="M0 0 C2.64 0 5.28 0 8 0 C8 14.52 8 29.04 8 44 C5.36 44 2.72 44 0 44 C0 29.48 0 14.96 0 0 Z " fill="#FDBE34" transform="translate(569,665)"/>
<path d="M0 0 C2.64 0 5.28 0 8 0 C8 14.52 8 29.04 8 44 C5.36 44 2.72 44 0 44 C0 29.48 0 14.96 0 0 Z " fill="#FDBE34" transform="translate(553,665)"/>
<path d="M0 0 C2.64 0 5.28 0 8 0 C8 14.52 8 29.04 8 44 C5.36 44 2.72 44 0 44 C0 29.48 0 14.96 0 0 Z " fill="#FDBE34" transform="translate(366,665)"/>
<path d="M0 0 C6.12142067 0.43080375 10.63698792 3.28398309 15.8125 6.3125 C16.68326172 6.79912109 17.55402344 7.28574219 18.45117188 7.78710938 C19.27810547 8.26599609 20.10503906 8.74488281 20.95703125 9.23828125 C21.70960205 9.67180908 22.46217285 10.10533691 23.23754883 10.55200195 C25.32878175 12.27012115 25.64305948 13.3625866 26 16 C20.91026564 19.59043276 15.66972837 22.86693717 10.25 25.9375 C9.18265625 26.54464844 8.1153125 27.15179687 7.015625 27.77734375 C3.73145264 29.10887995 2.31446688 29.08640859 -1 28 C-0.63191251 25.52169666 -0.40210638 24.3253581 1.58227539 22.71972656 C2.24735107 22.36362305 2.91242676 22.00751953 3.59765625 21.640625 C4.31630859 21.24746094 5.03496094 20.85429688 5.77539062 20.44921875 C6.53013672 20.05347656 7.28488281 19.65773438 8.0625 19.25 C8.82111328 18.83878906 9.57972656 18.42757812 10.36132812 18.00390625 C12.23451468 16.99073617 14.11646233 15.9937944 16 15 C12.58722301 12.32215271 8.95157296 10.06191741 5.25 7.8125 C4.64800781 7.44447266 4.04601562 7.07644531 3.42578125 6.69726562 C1.95161408 5.79638569 0.47595683 4.89794484 -1 4 C-0.67 2.68 -0.34 1.36 0 0 Z " fill="#FDBE34" transform="translate(625,506)"/>
<path d="M0 0 C-0.37530268 2.4072669 -0.60937482 3.66446544 -2.49047852 5.28027344 C-3.42525024 5.81442871 -3.42525024 5.81442871 -4.37890625 6.359375 C-5.05244141 6.75253906 -5.72597656 7.14570312 -6.41992188 7.55078125 C-7.48049805 8.14439453 -7.48049805 8.14439453 -8.5625 8.75 C-9.27341797 9.16121094 -9.98433594 9.57242188 -10.71679688 9.99609375 C-12.47134088 11.00878358 -14.23485161 12.00590921 -16 13 C-12.45211534 16.7493646 -8.13792863 18.7606066 -3.6171875 21.18359375 C-1 23 -1 23 -0.1328125 25.22265625 C-0.08898437 25.80917969 -0.04515625 26.39570312 0 27 C-2.96239006 27.88030791 -4.54407445 28.1700069 -7.47949219 27.07543945 C-8.32672852 26.59292725 -9.17396484 26.11041504 -10.046875 25.61328125 C-11.43712891 24.8234082 -11.43712891 24.8234082 -12.85546875 24.01757812 C-13.81066406 23.45490234 -14.76585937 22.89222656 -15.75 22.3125 C-16.72066406 21.76916016 -17.69132813 21.22582031 -18.69140625 20.66601562 C-25.80231775 16.55362135 -25.80231775 16.55362135 -26.78222656 13.80932617 C-26.8540918 13.21224854 -26.92595703 12.6151709 -27 12 C-23.23794597 9.65671132 -19.46636585 7.33046651 -15.68017578 5.02636719 C-14.21767854 4.13297305 -12.76247103 3.22766697 -11.30859375 2.3203125 C-10.54675781 1.86398437 -9.78492188 1.40765625 -9 0.9375 C-8.34 0.53402344 -7.68 0.13054687 -7 -0.28515625 C-4.37123146 -1.22473563 -2.64821502 -0.73101769 0 0 Z " fill="#FDBE34" transform="translate(576,507)"/>
<path d="M0 0 C2.4375 1.25 2.4375 1.25 4.4375 4.25 C4.73828125 6.80859375 4.73828125 6.80859375 4.75 9.6875 C4.77513672 11.10869141 4.77513672 11.10869141 4.80078125 12.55859375 C4.38269658 15.65601673 3.55050276 16.98717553 1.4375 19.25 C-0.4375 20.1875 -0.4375 20.1875 -2.5625 20.25 C-5.25 19 -5.25 19 -7.5625 17.25 C-9.25343877 12.17718368 -9.40653666 7.17922665 -7.25 2.25 C-4.9090944 -0.52440664 -3.49460275 -1.02281056 0 0 Z " fill="#1C3867" transform="translate(534.5625,683.75)"/>
<path d="M0 0 C2.4375 1.25 2.4375 1.25 4.4375 4.25 C4.73828125 6.80859375 4.73828125 6.80859375 4.75 9.6875 C4.77513672 11.10869141 4.77513672 11.10869141 4.80078125 12.55859375 C4.38269658 15.65601673 3.55050276 16.98717553 1.4375 19.25 C-0.4375 20.1875 -0.4375 20.1875 -2.5625 20.25 C-5.25 19 -5.25 19 -7.5625 17.25 C-9.25343877 12.17718368 -9.40653666 7.17922665 -7.25 2.25 C-4.9090944 -0.52440664 -3.49460275 -1.02281056 0 0 Z " fill="#1C3867" transform="translate(396.5625,683.75)"/>
<path d="M0 0 C3.4375 -0.4375 3.4375 -0.4375 7 0 C9.95949707 2.9526622 10.45439392 5.32725173 10.5 9.4375 C10.41896749 13.2257699 10.24078244 15.47786281 7.5 18.1875 C6.675 18.785625 5.85 19.38375 5 20 C2.97954558 19.39816251 0.97888961 18.72693904 -1 18 C-2.41693757 15.16612485 -2.1699013 12.71970627 -2.1875 9.5625 C-2.20167969 8.40878906 -2.21585938 7.25507812 -2.23046875 6.06640625 C-2 3 -2 3 0 0 Z " fill="#1D3967" transform="translate(626,684)"/>
<path d="M0 0 C1.7015625 0.2475 1.7015625 0.2475 3.4375 0.5 C5.86726312 4.14464468 5.79811651 6.15834431 5.875 10.5 C5.91496094 11.7375 5.95492188 12.975 5.99609375 14.25 C5.4375 17.5 5.4375 17.5 3.078125 19.47265625 C0.4375 20.5 0.4375 20.5 -2.25 19.9375 C-4.9068252 18.28596001 -5.42012572 17.3559357 -6.5625 14.5 C-7.14859661 10.24509087 -6.90752025 6.49447014 -5.5 2.4375 C-3.5625 0.5 -3.5625 0.5 0 0 Z " fill="#223B66" transform="translate(460.5625,683.5)"/>
<path d="M0 0 C0.1875 3.375 0.1875 3.375 0 7 C-3.22373677 9.14915785 -4.26703674 9.38286803 -8 9 C-8.66 8.34 -9.32 7.68 -10 7 C-9.75 3.9375 -9.75 3.9375 -9 1 C-6.04335481 -0.4783226 -3.25770263 -0.06032783 0 0 Z " fill="#233C66" transform="translate(601,695)"/>
<path d="M0 0 C0.763125 0.474375 1.52625 0.94875 2.3125 1.4375 C2.6425 3.0875 2.9725 4.7375 3.3125 6.4375 C-0.6475 6.4375 -4.6075 6.4375 -8.6875 6.4375 C-6.6875 1.4375 -6.6875 1.4375 -4.875 0 C-2.6875 -0.5625 -2.6875 -0.5625 0 0 Z " fill="#1F3967" transform="translate(798.6875,683.5625)"/>
<path d="M0 0 C0.763125 0.474375 1.52625 0.94875 2.3125 1.4375 C2.6425 3.0875 2.9725 4.7375 3.3125 6.4375 C-0.6475 6.4375 -4.6075 6.4375 -8.6875 6.4375 C-6.6875 1.4375 -6.6875 1.4375 -4.875 0 C-2.6875 -0.5625 -2.6875 -0.5625 0 0 Z " fill="#1F3967" transform="translate(702.6875,683.5625)"/>
</svg>
